<?xml version="1.0" encoding="utf-8"?>
<!-- Generator: Adobe Illustrator 16.0.4, SVG Export Plug-In . SVG Version: 6.00 Build 0)  -->
<!DOCTYPE svg PUBLIC "-//W3C//DTD SVG 1.1//EN" "http://www.w3.org/Graphics/SVG/1.1/DTD/svg11.dtd">
<svg version="1.1"
	 id="svg3001" xmlns:sodipodi="http://sodipodi.sourceforge.net/DTD/sodipodi-0.dtd" xmlns:svg="http://www.w3.org/2000/svg" xmlns:inkscape="http://www.inkscape.org/namespaces/inkscape" xmlns:cc="http://creativecommons.org/ns#" xmlns:dc="http://purl.org/dc/elements/1.1/" xmlns:rdf="http://www.w3.org/1999/02/22-rdf-syntax-ns#" sodipodi:docname="chevron_down_font_awesome.svg" inkscape:version="0.48.3.1 r9886"
	 xmlns="http://www.w3.org/2000/svg" xmlns:xlink="http://www.w3.org/1999/xlink" x="0px" y="0px" width="15px" height="10px"
	 viewBox="0 0 15 10" enable-background="new 0 0 15 10" xml:space="preserve">
<sodipodi:namedview  gridtolerance="10" inkscape:cx="896" showgrid="false" guidetolerance="10" inkscape:zoom="0.13169643" bordercolor="#666666" inkscape:cy="896" objecttolerance="10" borderopacity="1" pagecolor="#ffffff" id="namedview3007" inkscape:window-x="0" inkscape:window-height="480" inkscape:pageshadow="2" inkscape:current-layer="svg3001" inkscape:pageopacity="0" inkscape:window-y="25" inkscape:window-maximized="0" inkscape:window-width="640">
	</sodipodi:namedview>
<g id="g3003" transform="matrix(1,0,0,-1,68.338983,1133.5593)">
	<path fill="#444444" d="M-60.839,1124.455c-0.254,0-0.45,0.083-0.616,0.26l-6.272,6.272c-0.177,0.168-0.263,0.367-0.263,0.619
		c0,0.25,0.083,0.449,0.263,0.628l0.713,0.723c0.181,0.171,0.388,0.252,0.627,0.252c0.245,0,0.447-0.083,0.618-0.253l4.927-4.927
		l4.925,4.927c0.175,0.173,0.371,0.253,0.619,0.253c0.245,0,0.453-0.085,0.637-0.262l0.714-0.713
		c0.173-0.181,0.257-0.39,0.257-0.629c0-0.25-0.081-0.448-0.256-0.62l-6.266-6.266
		C-60.382,1124.544-60.589,1124.455-60.839,1124.455z"/>
	<path fill="#444444" d="M-60.839,1124.855c-0.142,0-0.233,0.036-0.323,0.133l-6.282,6.281c-0.108,0.103-0.146,0.196-0.146,0.336
		c0,0.142,0.042,0.242,0.146,0.346l0.715,0.725c0.093,0.088,0.201,0.133,0.342,0.133c0.141,0,0.239-0.04,0.335-0.136l5.21-5.209
		l5.208,5.209c0.098,0.097,0.193,0.136,0.336,0.136s0.25-0.045,0.359-0.15l0.709-0.708c0.094-0.099,0.139-0.206,0.139-0.346
		c0-0.142-0.039-0.239-0.137-0.336l-6.268-6.267C-60.597,1124.897-60.697,1124.855-60.839,1124.855z"/>
</g>
</svg>
