<?xml version="1.0" encoding="utf-8"?>
<!-- Generator: Adobe Illustrator 16.0.4, SVG Export Plug-In . SVG Version: 6.00 Build 0)  -->
<!DOCTYPE svg PUBLIC "-//W3C//DTD SVG 1.1//EN" "http://www.w3.org/Graphics/SVG/1.1/DTD/svg11.dtd">
<svg version="1.1" id="Layer_1" xmlns="http://www.w3.org/2000/svg" xmlns:xlink="http://www.w3.org/1999/xlink" x="0px" y="0px"
	 width="17px" height="17px" viewBox="0 0 17 17" enable-background="new 0 0 17 17" xml:space="preserve">
<path fill="#444444" d="M15.634,12.787L10.968,8.12l4.64-4.637c0.236-0.236,0.354-0.526,0.355-0.866
	c-0.001-0.334-0.12-0.627-0.359-0.876l-0.723-0.723c-0.25-0.237-0.543-0.356-0.877-0.356c-0.34,0-0.629,0.118-0.865,0.356
	L8.46,5.697L3.78,1.019C3.544,0.781,3.255,0.662,2.915,0.662c-0.334,0-0.626,0.118-0.876,0.356L1.327,1.74
	C1.083,1.984,0.961,2.275,0.961,2.615c0,0.348,0.122,0.637,0.366,0.867l4.667,4.667l-4.638,4.639
	C1.119,13.023,0.999,13.312,1,13.654c0,0.334,0.118,0.625,0.359,0.875l0.722,0.721c0.25,0.238,0.542,0.357,0.877,0.357
	c0.339,0,0.629-0.117,0.865-0.357l4.678-4.678l4.681,4.678c0.236,0.238,0.525,0.357,0.865,0.357
	c0.334,0.002,0.625-0.119,0.876-0.355l0.712-0.723c0.244-0.244,0.366-0.535,0.366-0.875C16,13.307,15.879,13.018,15.634,12.787z"/>
</svg>
