<?xml version="1.0" encoding="utf-8"?>
<!-- Generator: Adobe Illustrator 16.0.4, SVG Export Plug-In . SVG Version: 6.00 Build 0)  -->
<!DOCTYPE svg PUBLIC "-//W3C//DTD SVG 1.1//EN" "http://www.w3.org/Graphics/SVG/1.1/DTD/svg11.dtd">
<svg version="1.1"
	 id="svg3001" xmlns:sodipodi="http://sodipodi.sourceforge.net/DTD/sodipodi-0.dtd" xmlns:svg="http://www.w3.org/2000/svg" xmlns:inkscape="http://www.inkscape.org/namespaces/inkscape" xmlns:cc="http://creativecommons.org/ns#" xmlns:dc="http://purl.org/dc/elements/1.1/" xmlns:rdf="http://www.w3.org/1999/02/22-rdf-syntax-ns#" sodipodi:docname="chevron_down_font_awesome.svg" inkscape:version="0.48.3.1 r9886"
	 xmlns="http://www.w3.org/2000/svg" xmlns:xlink="http://www.w3.org/1999/xlink" x="0px" y="0px" width="11px" height="7px"
	 viewBox="0 0 11 7" enable-background="new 0 0 11 7" xml:space="preserve">
<sodipodi:namedview  gridtolerance="10" inkscape:cx="896" showgrid="false" guidetolerance="10" inkscape:zoom="0.13169643" bordercolor="#666666" inkscape:cy="896" objecttolerance="10" borderopacity="1" pagecolor="#ffffff" id="namedview3007" inkscape:window-x="0" inkscape:window-height="480" inkscape:pageshadow="2" inkscape:current-layer="svg3001" inkscape:pageopacity="0" inkscape:window-y="25" inkscape:window-maximized="0" inkscape:window-width="640">
	</sodipodi:namedview>
<g id="g3003" transform="matrix(1,0,0,-1,68.338983,1133.5593)">
	<path id="path3005" inkscape:connector-curvature="0" fill="#14BEF0" d="M-57.339,1132.126c0-0.25-0.087-0.461-0.261-0.635
		l-4.597-4.597c-0.179-0.179-0.393-0.269-0.642-0.269c-0.255,0-0.466,0.09-0.636,0.269l-4.597,4.597
		c-0.179,0.169-0.268,0.381-0.268,0.635c0,0.249,0.089,0.463,0.268,0.642l0.522,0.529c0.184,0.175,0.397,0.261,0.643,0.261
		c0.249,0,0.461-0.087,0.635-0.261l3.432-3.431l3.431,3.431c0.174,0.175,0.386,0.261,0.635,0.261c0.245,0,0.459-0.087,0.643-0.261
		l0.529-0.529C-57.426,1132.585-57.339,1132.371-57.339,1132.126z"/>
</g>
</svg>
